<svg xmlns="http://www.w3.org/2000/svg" width="18.473" height="18.958" viewBox="0 0 18.473 18.958">
  <path id="Icon_awesome-arrow-up" data-name="Icon awesome-arrow-up" d="M1.635,13.144.7,12.2a1.011,1.011,0,0,1,0-1.434L8.917,2.545a1.011,1.011,0,0,1,1.434,0l8.221,8.221a1.011,1.011,0,0,1,0,1.434l-.939.939a1.017,1.017,0,0,1-1.451-.017L11.328,8.028v12.16A1.013,1.013,0,0,1,10.313,21.2H8.959a1.013,1.013,0,0,1-1.015-1.015V8.028l-4.857,5.1a1.009,1.009,0,0,1-1.451.017Z" transform="translate(-0.397 -2.247)" fill="#3576b7"/>
</svg>
