<svg xmlns="http://www.w3.org/2000/svg" width="160.58" height="38.602" viewBox="0 0 160.58 38.602">
  <g id="Gemuine_logo" data-name="Gemuine logo" transform="translate(-40.976 -60.696)">
    <g id="Group_1" data-name="Group 1" transform="translate(40.976 60.696)">
      <path id="Path_1" data-name="Path 1" d="M57.292,89.913c-5.237.119-9.043-3.821-10.982-8.307a20.411,20.411,0,0,1-1.7-9.11c.213-4.753,2.451-9.346,7.324-10.723,4.8-1.357,9.437.4,12.722,3.992a.061.061,0,0,0,.048.019.057.057,0,0,0,.044-.025l1.5-2.354a.071.071,0,0,0,.008-.056.074.074,0,0,0-.035-.045c-5.619-3.167-12.834-3.648-18.5-.342a13.154,13.154,0,0,0-6.25,8.483c-1.782,7.376,1.228,14.907,8.48,17.816,6.2,2.485,13.105.755,18.014-3.633a.162.162,0,0,0,.054-.124,62.267,62.267,0,0,1,.437-9.462.064.064,0,0,0-.064-.073l-9.126,0a.079.079,0,0,0-.082.075v.221a.079.079,0,0,0,.082.075c1.664,0,5.074-.5,5.452,1.9a29.644,29.644,0,0,1,.134,4.71c-.036,4.258-3.577,6.88-7.565,6.97" transform="translate(-40.976 -60.696)" fill="none"/>
      <path id="Path_2" data-name="Path 2" d="M777.758,82.43l.016-4.8a.076.076,0,0,0-.076-.076l-3.11-.009a.075.075,0,0,0-.075.076l0,2.6a.152.152,0,0,0,.061.121l3.122,2.342a.07.07,0,0,0,.056.014.053.053,0,0,0,.04-.033.145.145,0,0,0,0-.1.62.62,0,0,1-.033-.14" transform="translate(-665.033 -75.035)" fill="none"/>
      <path id="Path_3" data-name="Path 3" d="M410.727,117.877l-.006-2.955a.151.151,0,0,0-.058-.122l-3.128-2.324q-.061-.046-.061.03.012,6.23,0,12.459-.006,2.821-.2,5.633a5.931,5.931,0,0,1-.757,3.074q-.043.058.03.06l5.177.006q.073,0,.024-.055c-1.055-1.176-.936-4.907-.984-6.6q-.128-4.5.03-6.7c.218-3.045,1.939-6.137,5.119-6.892a4.827,4.827,0,0,1,5.958,3.87,11.8,11.8,0,0,1,.261,2.545c.006,3.607.075,7.291-.224,10.886a5.4,5.4,0,0,1-.8,2.891q-.049.055.022.055l5.207.012q.073,0,.028-.058a3.056,3.056,0,0,1-.6-1.473,64.178,64.178,0,0,1-.394-9.334q.01-2.472.072-2.982a7.987,7.987,0,0,1,2.612-5.158,5.523,5.523,0,0,1,5.094-1.2c2.606.807,3.574,3.409,3.583,5.91a.146.146,0,0,0,.06.119l3.116,2.276q.06.043.063-.031c.164-3.592-.019-7.016-3.545-8.814-4.458-2.272-9.755.522-11.065,5.148q-.019.07-.031,0a6.391,6.391,0,0,0-3.634-5.206,8,8,0,0,0-10.907,4.946q-.072.216-.072-.01" transform="translate(-351.949 -104.51)" fill="none"/>
      <path id="Path_4" data-name="Path 4" d="M836.045,117.963l-.006-2.949a.15.15,0,0,0-.058-.121l-3.124-2.33q-.061-.045-.061.034c0,5.979.185,12.053-.194,18.017a6.159,6.159,0,0,1-.8,3.155q-.046.057.025.057l5.2.009q.073,0,.03-.058a3.464,3.464,0,0,1-.636-1.643,70.859,70.859,0,0,1-.378-8.9c-.013-2.369-.04-3.983.746-5.777,2-4.567,8.444-5.979,10.285-.413a6.859,6.859,0,0,1,.373,2.237q-.057,5.444-.025,10.885a5.229,5.229,0,0,0,.457,2.14c.807,1.8,2.592,1.643,4.225,1.582q.072,0,.007-.033c-1.285-.633-1.345-4.022-1.364-5.264q-.063-4.062-.06-8.123a15.894,15.894,0,0,0-.188-2.971,6.769,6.769,0,0,0-8.461-4.977,7.9,7.9,0,0,0-5.939,5.453q-.01.03-.031.031a.024.024,0,0,1-.021-.012.054.054,0,0,1-.009-.03" transform="translate(-713.763 -104.601)" fill="none"/>
      <path id="Path_5" data-name="Path 5" d="M255.816,125.382q7.025-2.128,14.044-4.279c.66-.2,1.027-.334.949-1.161a6.772,6.772,0,0,0-1.637-3.845c-5.134-6.015-14.76-3.043-16.66,4.261-1.6,6.133,1.415,13.083,8.183,14.172a10.868,10.868,0,0,0,11.193-5.762c.078-.137.137-.355-.124-.313a.161.161,0,0,0-.11.081c-4.424,7.456-14.313,5.074-15.895-3.058a.083.083,0,0,1,.057-.1" transform="translate(-220.584 -105.088)" fill="none"/>
      <path id="Path_6" data-name="Path 6" d="M987.5,125.442q7.152-2.169,14.3-4.361a1.442,1.442,0,0,0,.457-.2c.518-.4.079-2.066-.146-2.64a7.566,7.566,0,0,0-1.107-1.878c-4.44-5.683-13.378-3.846-16.223,2.4a12.636,12.636,0,0,0-.449,8.7,10.093,10.093,0,0,0,8.168,7.162,10.906,10.906,0,0,0,11.122-5.9.131.131,0,0,0,0-.133.214.214,0,0,0-.137-.09.112.112,0,0,0-.113.058c-4.521,7.476-14.344,5.14-15.929-3.025a.082.082,0,0,1,.058-.094" transform="translate(-843.059 -105.148)" fill="none"/>
      <path id="Path_7" data-name="Path 7" d="M767.48,135.128a.136.136,0,0,0-.043.036c-.038.044-.026.066.036.066h5.207q.073,0,.025-.054c-.94-1.034-.958-4.559-.973-5.883q-.073-6.444-.051-12.89a.147.147,0,0,0-.06-.122l-3.121-2.3c-.041-.03-.061-.019-.061.031q0,6.377-.016,12.756a55.056,55.056,0,0,1-.331,6.8,3.7,3.7,0,0,1-.533,1.5.209.209,0,0,1-.079.063" transform="translate(-658.997 -106.01)" fill="none"/>
      <path id="Path_8" data-name="Path 8" d="M623.3,132.467a12.9,12.9,0,0,0,.154,2.537c.387,2.486,2.321,2.634,4.509,2.522q.072,0,.009-.043c-1.1-.691-1.23-2.864-1.27-4.1q-.143-4.248-.107-8.5a44.193,44.193,0,0,1,.407-6.94,2.591,2.591,0,0,1,.54-1.212q.046-.058-.027-.058l-5.236-.01q-.073,0-.022.051c.9.919.919,3.671.949,4.821q.106,4.046.063,8.085c-.036,3.4-2.106,6.916-5.676,7.421a4.668,4.668,0,0,1-4.543-1.994c-1.313-1.873-1.121-4.165-1.125-6.609a.151.151,0,0,0-.06-.121l-3.109-2.343q-.06-.045-.06.031-.043,4.531,0,5.589a6.53,6.53,0,0,0,6.2,6.562,8.032,8.032,0,0,0,8.353-5.7q.009-.03.03-.031a.023.023,0,0,1,.02.011.049.049,0,0,1,.008.029" transform="translate(-523.95 -108.316)" fill="none"/>
      <path id="Path_9" data-name="Path 9" d="M1082.544,285.836c.725,1.031,2.564.564,2.943,1.573a.926.926,0,0,1-.5,1.157,2.219,2.219,0,0,1-2.551-.527.065.065,0,0,0-.053-.019.044.044,0,0,0-.038.03l-.124.357a.107.107,0,0,0,.048.118c.937.688,2.688.992,3.509-.03a1.313,1.313,0,0,0-.821-2.092c-.661-.172-1.9-.264-2.075-1.024a.92.92,0,0,1,.531-1.015,2.143,2.143,0,0,1,2.225.446.078.078,0,0,0,.109-.006.514.514,0,0,0,.128-.321.138.138,0,0,0-.064-.118,2.815,2.815,0,0,0-2.536-.348,1.2,1.2,0,0,0-.734,1.819" transform="translate(-926.817 -250.552)" fill="none"/>
      <path id="Path_10" data-name="Path 10" d="M830.255,284.22a.133.133,0,0,0-.094,0,.116.116,0,0,0-.064.113q0,1.618,0,3.237c0,1.469-1.012,1.972-2.146,1.01a.061.061,0,0,0-.051-.012.057.057,0,0,0-.04.032.719.719,0,0,0-.072.339.152.152,0,0,0,.069.118c1.1.752,2.669.44,2.712-1.125q.03-1.089.007-3.6a.117.117,0,0,0-.066-.113.183.183,0,0,0-.124,0,.232.232,0,0,1-.131,0" transform="translate(-710.358 -250.853)" fill="none"/>
      <path id="Path_11" data-name="Path 11" d="M874.783,289l.013-1.876a.075.075,0,0,1,.073-.076l1.88-.012a.1.1,0,0,0,.1-.067.431.431,0,0,0,0-.243.1.1,0,0,0-.1-.07l-1.879-.009a.073.073,0,0,1-.052-.024.078.078,0,0,1-.021-.055l.013-1.758a.077.077,0,0,1,.075-.078l2.563-.019a.108.108,0,0,0,.106-.063.432.432,0,0,0,.006-.257.1.1,0,0,0-.1-.073l-3.089.007a.076.076,0,0,0-.076.076l-.006,4.976a.075.075,0,0,0,.075.075l3.1.012a.085.085,0,0,0,.093-.073l.009-.234a.064.064,0,0,0-.024-.051.1.1,0,0,0-.061-.022l-2.63-.009a.068.068,0,0,1-.05-.022.077.077,0,0,1-.02-.054" transform="translate(-749.921 -250.945)" fill="none"/>
      <path id="Path_12" data-name="Path 12" d="M922.585,284.919q.039-.109.079,0l1.566,4.315a.121.121,0,0,0,.1.088l.361,0a.108.108,0,0,0,.094-.088l1.354-4.907a.082.082,0,0,0-.046-.1.628.628,0,0,0-.373-.021.127.127,0,0,0-.091.094L924.5,288.48q-.019.073-.046,0L922.9,284.3a.159.159,0,0,0-.094-.1.555.555,0,0,0-.361,0,.166.166,0,0,0-.092.1l-1.522,4.173q-.039.1-.069,0l-1.151-4.174a.144.144,0,0,0-.09-.1.59.59,0,0,0-.379.006.08.08,0,0,0-.048.1l1.387,4.949a.1.1,0,0,0,.094.079l.34-.012a.118.118,0,0,0,.1-.084l1.573-4.316" transform="translate(-788.033 -250.817)" fill="none"/>
      <path id="Path_13" data-name="Path 13" d="M992.373,284.691l2.558,0a.114.114,0,0,0,.109-.066.385.385,0,0,0,0-.237.1.1,0,0,0-.1-.07l-3.089.006a.076.076,0,0,0-.076.076l-.009,4.989a.076.076,0,0,0,.078.075l3.083.007a.109.109,0,0,0,.106-.067.4.4,0,0,0,.006-.255.105.105,0,0,0-.1-.07l-2.585-.01a.08.08,0,0,1-.081-.078l0-1.866a.079.079,0,0,1,.079-.079l1.881-.012a.1.1,0,0,0,.1-.067.44.44,0,0,0,0-.243.1.1,0,0,0-.1-.07l-1.875-.01a.082.082,0,0,1-.082-.076,10.466,10.466,0,0,1,.015-1.8.084.084,0,0,1,.082-.076" transform="translate(-849.867 -250.945)" fill="none"/>
      <path id="Path_14" data-name="Path 14" d="M1039.977,289.07l-.008-4.573a.082.082,0,0,0-.073-.085l-.337-.012a.072.072,0,0,0-.054.023.085.085,0,0,0-.022.058l0,4.953a.077.077,0,0,0,.076.076l2.885.025a.1.1,0,0,0,.1-.07.424.424,0,0,0-.013-.245.106.106,0,0,0-.1-.067l-2.371-.009a.075.075,0,0,1-.075-.075" transform="translate(-890.457 -251.013)" fill="none"/>
      <path id="Path_15" data-name="Path 15" d="M277.564,116.574c-3.07,2.315-3.471,7-2.94,10.45a.066.066,0,0,0,.084.052q5.261-1.543,10.519-3.1c.775-.228,1.384-.579,1.428-1.358a8.048,8.048,0,0,0-1.694-5.774c-1.878-2-5.409-1.769-7.4-.269" transform="translate(-239.585 -107.233)" fill="none"/>
      <path id="Path_16" data-name="Path 16" d="M1008.262,117.475c-2.092,2.48-2.415,6.449-1.939,9.5a.107.107,0,0,0,.049.075.11.11,0,0,0,.09.012q5.227-1.549,10.361-3.064c.717-.212,1.469-.53,1.528-1.309.212-2.754-.752-6.294-3.768-7.1a6.274,6.274,0,0,0-6.321,1.886" transform="translate(-862.085 -107.218)" fill="none"/>
    </g>
    <path id="Path_18" data-name="Path 18" d="M57.292,89.913c3.988-.09,7.529-2.712,7.565-6.97a29.646,29.646,0,0,0-.134-4.71c-.378-2.4-3.788-1.9-5.452-1.9a.079.079,0,0,1-.082-.075V76.04a.079.079,0,0,1,.082-.075l9.126,0a.064.064,0,0,1,.064.073,62.264,62.264,0,0,0-.437,9.462.162.162,0,0,1-.054.124c-4.909,4.388-11.819,6.118-18.014,3.633-7.252-2.909-10.262-10.44-8.48-17.816a13.154,13.154,0,0,1,6.25-8.483c5.665-3.306,12.88-2.825,18.5.342a.074.074,0,0,1,.035.045.071.071,0,0,1-.008.056l-1.5,2.354a.057.057,0,0,1-.044.025.061.061,0,0,1-.048-.019c-3.285-3.591-7.925-5.349-12.722-3.992-4.873,1.378-7.11,5.97-7.324,10.723a20.411,20.411,0,0,0,1.7,9.11C48.249,86.092,52.055,90.032,57.292,89.913Z" fill="#fff"/>
    <path id="Path_19" data-name="Path 19" d="M777.79,82.571a.146.146,0,0,1,0,.1.053.053,0,0,1-.04.033.07.07,0,0,1-.056-.014l-3.122-2.342a.152.152,0,0,1-.061-.121l0-2.6a.075.075,0,0,1,.075-.076l3.11.009a.076.076,0,0,1,.076.076l-.016,4.8A.62.62,0,0,0,777.79,82.571Z" transform="translate(-624.057 -14.339)" fill="#fff"/>
    <path id="Path_20" data-name="Path 20" d="M410.727,117.877q0,.227.072.01a8,8,0,0,1,10.907-4.946,6.391,6.391,0,0,1,3.634,5.206q.012.072.031,0c1.31-4.625,6.607-7.419,11.065-5.147,3.525,1.8,3.709,5.222,3.545,8.814q0,.075-.063.031l-3.116-2.276a.146.146,0,0,1-.06-.119c-.009-2.5-.978-5.1-3.583-5.91a5.523,5.523,0,0,0-5.094,1.2,7.987,7.987,0,0,0-2.612,5.158q-.061.51-.072,2.982a64.178,64.178,0,0,0,.394,9.334,3.056,3.056,0,0,0,.6,1.473q.045.058-.028.058l-5.207-.012q-.072,0-.022-.055a5.4,5.4,0,0,0,.8-2.891c.3-3.6.23-7.279.224-10.886a11.8,11.8,0,0,0-.261-2.545,4.827,4.827,0,0,0-5.958-3.87c-3.18.755-4.9,3.848-5.119,6.892q-.158,2.2-.03,6.7c.048,1.694-.072,5.425.984,6.6q.049.055-.024.055l-5.177-.006q-.073,0-.03-.06a5.931,5.931,0,0,0,.757-3.074q.19-2.812.2-5.633.015-6.23,0-12.459,0-.076.061-.03l3.128,2.324a.151.151,0,0,1,.058.122Z" transform="translate(-310.973 -43.814)" fill="#fff"/>
    <path id="Path_21" data-name="Path 21" d="M836.075,118q.021,0,.031-.031a7.9,7.9,0,0,1,5.939-5.453,6.769,6.769,0,0,1,8.461,4.977,15.894,15.894,0,0,1,.188,2.971q0,4.061.06,8.123c.019,1.242.079,4.631,1.364,5.264q.064.031-.007.033c-1.633.061-3.418.215-4.225-1.582a5.229,5.229,0,0,1-.457-2.14q-.031-5.44.025-10.885a6.859,6.859,0,0,0-.373-2.237c-1.84-5.565-8.282-4.154-10.285.413-.786,1.794-.76,3.409-.746,5.777a70.859,70.859,0,0,0,.378,8.9,3.464,3.464,0,0,0,.636,1.643q.043.058-.03.058l-5.2-.009q-.072,0-.025-.057a6.159,6.159,0,0,0,.8-3.155c.379-5.964.19-12.038.194-18.017q0-.079.061-.034l3.124,2.33a.15.15,0,0,1,.058.121l.006,2.949a.053.053,0,0,0,.009.03A.024.024,0,0,0,836.075,118Z" transform="translate(-672.787 -43.906)" fill="#fff"/>
    <path id="Path_22" data-name="Path 22" d="M255.759,125.477c1.582,8.132,11.471,10.514,15.895,3.058a.161.161,0,0,1,.11-.081c.261-.042.2.176.124.313a10.868,10.868,0,0,1-11.193,5.762c-6.768-1.089-9.779-8.04-8.183-14.172,1.9-7.3,11.526-10.276,16.66-4.261a6.772,6.772,0,0,1,1.637,3.845c.078.827-.29.958-.949,1.161q-7.019,2.151-14.044,4.279a.083.083,0,0,0-.057.1Zm2.8-11.049c-3.07,2.315-3.471,7-2.94,10.45a.066.066,0,0,0,.084.052q5.261-1.543,10.519-3.1c.775-.228,1.383-.579,1.428-1.358a8.049,8.049,0,0,0-1.694-5.774C264.083,112.7,260.551,112.929,258.563,114.429Z" transform="translate(-179.608 -44.392)" fill="#fff"/>
    <path id="Path_23" data-name="Path 23" d="M987.443,125.536c1.585,8.165,11.408,10.5,15.929,3.025a.112.112,0,0,1,.113-.058.214.214,0,0,1,.137.09.131.131,0,0,1,0,.133,10.906,10.906,0,0,1-11.122,5.9,10.093,10.093,0,0,1-8.168-7.162,12.636,12.636,0,0,1,.449-8.7c2.845-6.249,11.783-8.086,16.223-2.4a7.566,7.566,0,0,1,1.107,1.878c.225.575.664,2.236.146,2.64a1.442,1.442,0,0,1-.457.2q-7.144,2.192-14.3,4.361A.082.082,0,0,0,987.443,125.536Zm1.792-10.131c-2.092,2.48-2.415,6.449-1.939,9.5a.107.107,0,0,0,.049.075.11.11,0,0,0,.09.012q5.226-1.549,10.361-3.064c.716-.212,1.469-.53,1.528-1.309.212-2.754-.752-6.294-3.768-7.1A6.275,6.275,0,0,0,989.235,115.405Z" transform="translate(-802.083 -44.452)" fill="#fff"/>
    <path id="Path_24" data-name="Path 24" d="M767.56,135.065a3.7,3.7,0,0,0,.533-1.5,55.056,55.056,0,0,0,.331-6.8q.016-6.379.016-12.756c0-.051.02-.061.061-.031l3.121,2.3a.147.147,0,0,1,.06.122q-.022,6.446.051,12.89c.015,1.324.033,4.849.973,5.883q.048.054-.025.054h-5.207c-.062,0-.074-.022-.036-.066a.136.136,0,0,1,.043-.036A.21.21,0,0,0,767.56,135.065Z" transform="translate(-618.021 -45.314)" fill="#fff"/>
    <path id="Path_27" data-name="Path 27" d="M623.275,132.427q-.021,0-.03.031a8.032,8.032,0,0,1-8.353,5.7,6.53,6.53,0,0,1-6.2-6.562q-.039-1.058,0-5.589,0-.076.06-.031l3.109,2.343a.151.151,0,0,1,.06.121c0,2.443-.188,4.736,1.125,6.609a4.668,4.668,0,0,0,4.543,1.994c3.57-.5,5.64-4.019,5.676-7.421q.043-4.039-.063-8.085c-.03-1.149-.049-3.9-.949-4.821q-.051-.052.022-.051l5.236.01q.073,0,.027.058a2.591,2.591,0,0,0-.54,1.212,44.193,44.193,0,0,0-.407,6.94q-.036,4.249.107,8.5c.04,1.233.175,3.406,1.27,4.1q.063.039-.009.043c-2.188.112-4.122-.036-4.509-2.522a12.9,12.9,0,0,1-.154-2.537.049.049,0,0,0-.008-.029A.023.023,0,0,0,623.275,132.427Z" transform="translate(-482.974 -47.62)" fill="#fff"/>
    <path id="Path_28" data-name="Path 28" d="M1082.544,285.836a1.2,1.2,0,0,1,.734-1.819,2.815,2.815,0,0,1,2.536.348.138.138,0,0,1,.064.118.514.514,0,0,1-.128.321.078.078,0,0,1-.109.006,2.143,2.143,0,0,0-2.225-.446.92.92,0,0,0-.531,1.015c.172.76,1.413.852,2.075,1.024a1.313,1.313,0,0,1,.821,2.092c-.821,1.022-2.572.718-3.509.03a.107.107,0,0,1-.048-.118l.124-.357a.044.044,0,0,1,.038-.03.065.065,0,0,1,.053.019,2.219,2.219,0,0,0,2.551.527.926.926,0,0,0,.5-1.157C1085.109,286.4,1083.27,286.867,1082.544,285.836Z" transform="translate(-885.841 -189.856)" fill="#fff"/>
    <path id="Path_29" data-name="Path 29" d="M830.386,284.22a.183.183,0,0,1,.124,0,.117.117,0,0,1,.066.113q.022,2.509-.007,3.6c-.043,1.566-1.612,1.878-2.712,1.125a.152.152,0,0,1-.069-.118.719.719,0,0,1,.072-.339.057.057,0,0,1,.04-.032.061.061,0,0,1,.051.012c1.134.961,2.148.458,2.146-1.01q0-1.619,0-3.237a.116.116,0,0,1,.064-.113.133.133,0,0,1,.094,0A.232.232,0,0,0,830.386,284.22Z" transform="translate(-669.383 -190.157)" fill="#fff"/>
    <path id="Path_30" data-name="Path 30" d="M874.853,289.076l2.63.009a.1.1,0,0,1,.061.022.064.064,0,0,1,.024.051l-.009.234a.085.085,0,0,1-.093.073l-3.1-.012a.075.075,0,0,1-.075-.075l.006-4.976a.076.076,0,0,1,.076-.076l3.089-.007a.1.1,0,0,1,.1.073.432.432,0,0,1-.006.257.108.108,0,0,1-.106.063l-2.563.019a.077.077,0,0,0-.075.078l-.013,1.758a.078.078,0,0,0,.021.055.073.073,0,0,0,.052.024l1.879.009a.1.1,0,0,1,.1.07.431.431,0,0,1,0,.243.1.1,0,0,1-.1.067l-1.881.012a.075.075,0,0,0-.073.076L874.783,289a.077.077,0,0,0,.02.054A.068.068,0,0,0,874.853,289.076Z" transform="translate(-708.945 -190.249)" fill="#fff"/>
    <path id="Path_31" data-name="Path 31" d="M922.585,284.919l-1.573,4.316a.118.118,0,0,1-.1.084l-.34.012a.1.1,0,0,1-.094-.079l-1.386-4.949a.08.08,0,0,1,.048-.1.589.589,0,0,1,.379-.006.144.144,0,0,1,.09.1l1.151,4.174q.03.106.069,0l1.522-4.173a.166.166,0,0,1,.093-.1.555.555,0,0,1,.361,0,.159.159,0,0,1,.094.1l1.56,4.183q.027.072.046,0l1.124-4.182a.127.127,0,0,1,.091-.094.627.627,0,0,1,.373.021.082.082,0,0,1,.046.1l-1.354,4.907a.108.108,0,0,1-.094.088h-.361a.121.121,0,0,1-.1-.088l-1.566-4.315Q922.624,284.81,922.585,284.919Z" transform="translate(-747.057 -190.121)" fill="#fff"/>
    <path id="Path_32" data-name="Path 32" d="M992.291,284.768a10.454,10.454,0,0,0-.015,1.8.082.082,0,0,0,.082.076l1.875.01a.1.1,0,0,1,.1.07.44.44,0,0,1,0,.243.1.1,0,0,1-.1.067l-1.88.012a.079.079,0,0,0-.079.079l0,1.866a.08.08,0,0,0,.081.078l2.585.01a.1.1,0,0,1,.1.07.4.4,0,0,1-.006.255.109.109,0,0,1-.106.067l-3.083-.007a.076.076,0,0,1-.078-.075l.009-4.989a.076.076,0,0,1,.076-.076l3.089-.006a.1.1,0,0,1,.1.07.383.383,0,0,1,0,.237.114.114,0,0,1-.109.066h-2.558A.083.083,0,0,0,992.291,284.768Z" transform="translate(-808.891 -190.249)" fill="#fff"/>
    <path id="Path_33" data-name="Path 33" d="M1040.051,289.144l2.371.009a.105.105,0,0,1,.1.067.422.422,0,0,1,.013.245.1.1,0,0,1-.1.07l-2.885-.025a.077.077,0,0,1-.076-.076l0-4.953a.085.085,0,0,1,.022-.058.072.072,0,0,1,.054-.023l.337.012a.082.082,0,0,1,.073.085l.008,4.573A.075.075,0,0,0,1040.051,289.144Z" transform="translate(-849.481 -190.317)" fill="#fff"/>
  </g>
</svg>
