<svg xmlns="http://www.w3.org/2000/svg" width="48.761" height="34.098" viewBox="0 0 48.761 34.098">
  <g id="Layer_x0020_1" transform="translate(-0.49 -1.369)">
    <g id="_485100896" transform="translate(0.49 1.369)">
      <path id="_485101088" d="M10.431,1.369A9.941,9.941,0,1,0,15.3,19.977a.585.585,0,0,1,.869.568,25.718,25.718,0,0,1-2.443,8.771,21.443,21.443,0,0,1-4.5,6.151c8.989-4.805,12.648-15.058,11.414-23.342-.775-5.2-3.866-10.757-10.216-10.757Z" transform="translate(-0.49 -1.369)" fill-rule="evenodd"/>
      <path id="_485100920" d="M13.833,1.369a9.941,9.941,0,1,0,4.873,18.608.585.585,0,0,1,.607.02.584.584,0,0,1,.262.547,25.719,25.719,0,0,1-2.444,8.771,21.439,21.439,0,0,1-4.5,6.151c8.987-4.805,12.647-15.058,11.413-23.342-.775-5.2-3.865-10.757-10.215-10.757Z" transform="translate(24.481 -1.369)" fill-rule="evenodd"/>
    </g>
  </g>
</svg>
